# xmcd
#
# Track frame offsets: 
#        150
#        34722
#        69232
#        98772
#        132179
#        174609
#        191768
#        205052
#        232017
#        258727
#        278730
#        301567
#
# Disc length: 4476 seconds
#
# Revision: 0
# Processed by: cddbd v1.5.2PL0 Copyright (c) Steve Scherf et al.
# Submitted via: ExactAudioCopyFreeDBPlugin 1.0
#
DISCID=a2117a0c
DTITLE=J.J. Cale - Cajun Moon
DYEAR=2015
DGENRE=Blues
TTITLE0=Cajun Moon
TTITLE1=Call me the breeze
TTITLE2=Lies
TTITLE3=Clyde
TTITLE4=After midnight
TTITLE5=Call the doctor
TTITLE6=Got my mojo working
TTITLE7=Magnolia
TTITLE8=Crazy Mama
TTITLE9=Sensitive kind
TTITLE10=Bringing it back
TTITLE11=Cocaine
EXTD=
EXTT0=
EXTT1=
EXTT2=
EXTT3=
EXTT4=
EXTT5=
EXTT6=
EXTT7=
EXTT8=
EXTT9=
EXTT10=
EXTT11=
PLAYORDER=
